<?xml version="1.0" encoding="utf-8"?>
<svg version="1.1" xmlns="http://www.w3.org/2000/svg" xmlns:xlink="http://www.w3.org/1999/xlink" x="0px" y="0px" viewBox="110 50 450 450" style="enable-background:new 0 0 682.34 534.35;" xml:space="preserve">
	<style type="text/css">
		.st0{fill:#ffffff;}
		.st1{fill:#E679A6;}
	</style>
	<g id="BRAIN_COLOR">
		<polygon class="st1" points="500.49,165.44 529.91,212.03 544.62,262.7 544.62,310.92 519.29,352.61 490.68,369.77 494.77,384.48 
			476.79,411.45 443.28,428.62 395.06,424.53 395.87,453.14 382.8,468.67 365.63,458.04 340.3,417.17 331.31,367.32 270.82,368.14 
			220.97,349.34 201.35,317.46 200.54,306.02 173.56,304.39 140.05,287.22 125.34,258.62 128.61,210.39 165.39,163.81 243.04,112.32 
			332.12,91.88 407.32,100.87 466.98,136.84 	"/>
	</g>
	<g id="BRAIN">
		<g>
			<g>
				<g>
					<path d="M196.67,302.83c-2.34,1.63-5.33,1.44-8.02,1.01c-3.36-0.53-6.69-1.41-10-2.21c-6.95-1.68-13.95-3.58-20.43-6.66
						c-9.96-4.74-17.75-12.28-23.03-21.94c-10.21-18.65-9.77-42.49-1.53-61.86c9.95-23.38,29.32-41.33,49.87-55.52
						c11.13-7.68,22.85-14.58,34.7-21.09c12.82-7.04,25.96-13.51,39.47-19.13c26.17-10.88,54.1-18.86,82.62-19.23
						c27.15-0.35,54,6.6,78.57,17.9c12.48,5.74,24.45,12.55,35.9,20.14c10.93,7.25,21.53,15.11,31.12,24.08
						c18.3,17.1,33.17,37.97,42.96,61.04c10.17,23.96,15.33,50.8,12.19,76.79c-1.6,13.25-5.75,26.09-12.9,37.4
						c-6.43,10.17-14.84,18.95-24.72,25.81c-4.81,3.34-9.92,6.13-15.3,8.41c-3.45,1.47-2.31,5.9,0.14,7.66
						c2.02,1.45,2.41,3.84,2.19,6.5c-0.29,3.42-1.54,6.8-3.26,9.76c-4.09,6.99-10.19,13.05-16.54,18
						c-13.73,10.7-30.78,16.43-48.19,16.01c-9.06-0.22-18.17-2.11-26.58-5.51c-7.82-3.16-15.89-7.61-21.35-14.2
						c-4.85-5.85-7.27-14.07-1.03-19.95c6.77-6.37,16.55-6.18,25.21-5.37c5.93,0.55,11.85,1.26,17.77,1.89
						c5.74,0.62,11.56,1.58,17.33,1.64c5.12,0.06,10.52-1.11,14.22-4.88c3.71-3.77,5.15-8.73,3.59-13.82
						c-0.58-1.91-2.86-3.43-4.82-2.7c-2.14,0.79-2.47,3.29-1.88,5.19c0.99,3.24-3.19,6.25-5.73,7.12
						c-4.82,1.64-10.33,0.61-15.26,0.08c-5.78-0.62-11.55-1.24-17.33-1.87c-5.54-0.6-11.12-1.38-16.7-1.36
						c-9.33,0.03-19.91,3.18-24.86,11.78c-5.1,8.86-2.29,19.16,3.79,26.74c6.15,7.66,14.76,13,23.73,16.78
						c9.4,3.96,19.35,6.24,29.55,6.67c18.99,0.79,37.89-5.49,52.91-17.09c7.88-6.08,15.58-13.89,19.88-22.97
						c4.13-8.71,4.54-19.71-3.97-25.84c0.05,2.55,0.09,5.11,0.14,7.66c23.73-10.06,42.89-30.02,51.79-54.24
						c10.02-27.29,7.56-58.5-0.55-85.96c-7.54-25.56-21.03-49.17-38.47-69.25c-18.18-20.94-41.35-37.66-65.52-51.04
						c-25.08-13.9-52.53-23.75-81.17-26.55c-29.31-2.87-58.7,2.89-86.28,12.64c-28.45,10.05-55.35,24.27-80.94,40.17
						c-22.44,13.94-44.11,31.34-57.45,54.56c-6.19,10.77-10.45,22.45-11.79,34.84c-1.26,11.67-0.12,23.66,3.58,34.81
						c3.6,10.87,9.9,21.1,18.69,28.54c11.04,9.36,24.97,13.25,38.83,16.31c6.4,1.42,13.5,3.09,19.23-1.14
						C204.47,306.81,200.46,300.19,196.67,302.83L196.67,302.83z"/>
				</g>
			</g>
			<g>
				<g>
					<path d="M198.3,309.35c-0.63,20.34,11.86,38.01,28.3,48.91c18.96,12.57,42.65,14.7,64.81,14.33
						c13.79-0.23,27.58-1.17,41.36-1.86c-1.39-1.34-2.79-2.68-4.18-4.02c1,23.05,5.35,46.57,15.74,67.34
						c2.64,5.27,5.56,10.37,8.96,15.19c3.4,4.83,7.18,9.64,11.57,13.61c4.58,4.14,10.19,7.23,16.5,7.23c2.98,0,5.89-0.81,8.44-2.34
						c2.66-1.59,4.51-4.1,5.85-6.84c2.5-5.09,3.05-11.19,3.48-16.77c0.44-5.72,0.66-11.59,0.03-17.3c-0.22-2.04-2.01-4.11-4.18-4.01
						c-2.22,0.1-3.34,2.33-3.12,4.32c0.11,0.96,0.17,1.92,0.22,2.89c0.03,0.54,0.05,1.08,0.06,1.63c0.01,0.23,0.01,0.45,0.02,0.68
						c0.02,1.15,0-0.86,0,0.31c-0.01,2.47-0.07,4.94-0.22,7.41c-0.14,2.39-0.34,4.78-0.63,7.15c-0.12,0.98-0.26,1.95-0.42,2.92
						c-0.07,0.41-0.14,0.81-0.22,1.22c0,0.02-0.28,1.27-0.1,0.53c-0.09,0.38-0.19,0.77-0.29,1.14c-0.31,1.13-0.69,2.25-1.17,3.33
						c0,0.01-0.58,1.12-0.24,0.51c-0.13,0.22-0.26,0.44-0.39,0.66c-0.17,0.27-0.35,0.53-0.54,0.79c-0.08,0.11-0.83,1.01-0.46,0.61
						c-0.38,0.41-0.82,0.77-1.27,1.11c-0.24,0.18-0.49,0.35-0.75,0.51c0.5-0.32,0.01,0-0.1,0.05c-0.55,0.25-1.1,0.49-1.67,0.68
						c-0.29,0.09-0.58,0.17-0.87,0.24c-0.26,0.06-0.24,0.06,0.06,0c-0.18,0.03-0.36,0.06-0.54,0.08c-2.65,0.36-4.19,0.14-6.7-0.76
						c-0.66-0.24,0.83,0.41-0.37-0.15c-0.25-0.12-0.5-0.23-0.75-0.35c-0.62-0.31-1.22-0.64-1.81-1.01c-1.28-0.79-1.59-1.03-2.85-2.11
						c-2.11-1.82-3.99-3.88-5.8-5.99c0.53,0.62-0.33-0.39-0.35-0.42c-0.17-0.21-0.34-0.42-0.51-0.63c-0.43-0.52-0.85-1.05-1.26-1.58
						c-0.83-1.06-1.63-2.14-2.42-3.24c-3.13-4.37-5.89-8.98-8.37-13.75c0.35,0.68,0.03,0.06-0.03-0.06
						c-0.18-0.36-0.36-0.72-0.54-1.08c-0.27-0.54-0.53-1.09-0.78-1.64c-0.6-1.28-1.18-2.57-1.73-3.87c-1.06-2.48-2.05-5-2.95-7.54
						c-0.89-2.49-1.71-5.01-2.45-7.54c-0.37-1.24-0.72-2.48-1.05-3.73c-0.18-0.66-0.35-1.32-0.52-1.98
						c-0.22-0.84-0.07-0.26-0.02-0.09c-0.11-0.46-0.23-0.93-0.34-1.39c-2.81-11.89-4.29-24.07-4.82-36.28
						c-0.09-2.03-2.11-4.12-4.18-4.02c-11.86,0.6-23.72,1.33-35.6,1.72c-11.21,0.37-22.62,0.36-33.6-1.26
						c-5.54-0.82-11.03-2.03-16.36-3.74c-1.23-0.4-2.45-0.82-3.66-1.27c-0.31-0.12-0.63-0.23-0.94-0.36
						c-0.14-0.06-0.87-0.35-0.29-0.11c-0.56-0.23-1.13-0.47-1.68-0.71c-2.08-0.91-4.11-1.93-6.09-3.05c-1.99-1.12-3.92-2.33-5.8-3.64
						c-0.2-0.14-0.4-0.28-0.61-0.43c0.06,0.04-0.92-0.67-0.49-0.36c0.43,0.32-0.54-0.41-0.48-0.37c-0.2-0.15-0.39-0.3-0.59-0.45
						c-0.92-0.72-1.83-1.46-2.71-2.23c-1.71-1.49-3.35-3.06-4.9-4.71c-0.37-0.4-0.74-0.81-1.11-1.22c-0.16-0.18-1.12-1.32-0.63-0.72
						c-0.73-0.89-1.44-1.79-2.13-2.71c-1.47-1.97-2.8-4.04-3.99-6.19c-0.14-0.26-0.28-0.52-0.42-0.79c-0.08-0.16-0.17-0.32-0.25-0.47
						c0.19,0.38,0.22,0.44,0.09,0.17c-0.28-0.59-0.57-1.18-0.83-1.77c-0.48-1.08-0.92-2.18-1.32-3.29c-0.42-1.17-0.79-2.35-1.11-3.55
						c-0.03-0.12-0.21-0.84-0.09-0.34c0.12,0.49-0.13-0.58-0.15-0.69c-0.14-0.64-0.26-1.28-0.37-1.92c-0.2-1.17-0.34-2.36-0.44-3.54
						c-0.13-1.57-0.13-2.24-0.11-3.34c0.04-1.96-0.91-4.09-2.99-4.6C200.25,305.99,198.36,307.44,198.3,309.35L198.3,309.35z"/>
				</g>
			</g>
			<g>
				<g>
					<path d="M203.15,309.26c0.05-0.23,0.1-0.47,0.15-0.7c0.24-1.12-0.1,0.4,0.06-0.27c0.13-0.52,0.26-1.04,0.39-1.56
						c0.28-1.03,0.58-2.06,0.9-3.08c0.65-2.04,1.4-4.04,2.24-6.01c0.37-0.87,0.77-1.74,1.17-2.6c0.23-0.48,0.47-0.96,0.71-1.44
						c0.27-0.54-0.22,0.42,0.06-0.11c0.17-0.32,0.33-0.63,0.5-0.94c0.99-1.83,2.07-3.61,3.22-5.34c4.78-7.21,10.03-12.73,16.97-17.93
						c1.72-1.29,3.49-2.5,5.31-3.63c0.4-0.25,0.81-0.5,1.22-0.74c0.2-0.12,0.41-0.24,0.62-0.36c-0.08,0.05,0.94-0.54,0.52-0.3
						c-0.34,0.19,0.3-0.17,0.37-0.21c0.21-0.11,0.42-0.23,0.63-0.34c0.52-0.28,1.05-0.56,1.58-0.82c3.77-1.9,7.7-3.47,11.74-4.67
						c0.97-0.29,1.94-0.55,2.92-0.79c0.52-0.13,1.04-0.25,1.56-0.37c0.23-0.05,0.46-0.1,0.7-0.15c1.14-0.24-0.66,0.11,0.48-0.09
						c2.04-0.36,4.07-0.67,6.14-0.85c1.97-0.17,3.95-0.22,5.93-0.15c1.03,0.04,2.06,0.1,3.08,0.21c-0.65-0.07,0.66,0.09,0.78,0.1
						c0.57,0.08,1.13,0.16,1.69,0.26c2.22,0.39,4.42,0.95,6.55,1.71c0.21,0.07,0.42,0.15,0.63,0.23c1.02,0.37-0.64-0.3,0.35,0.14
						c0.5,0.22,1.01,0.44,1.5,0.68c0.98,0.47,1.93,1,2.85,1.57c0.45,0.29,0.9,0.59,1.34,0.9c-0.12-0.08-0.59-0.47-0.03-0.02
						c0.25,0.2,0.5,0.4,0.75,0.6c0.77,0.65,1.48,1.36,2.18,2.08c0.16,0.16,0.63,0.73,0.06,0.04c0.17,0.2,0.33,0.41,0.5,0.62
						c0.32,0.42,0.63,0.86,0.92,1.3c0.3,0.45,0.56,0.92,0.83,1.39c0.13,0.22,0.42,0.91,0.02,0.03c0.14,0.3,0.28,0.6,0.41,0.9
						c0.87,2.01,3.43,3.93,5.54,2.18c14.06-11.69,28.5-23.42,45.38-30.33c4.02-1.64,8.15-3.03,12.38-4.02
						c0.47-0.11,0.93-0.21,1.4-0.31c-0.6,0.13,0.5-0.1,0.66-0.13c1-0.19,2.01-0.35,3.03-0.49c1.91-0.27,3.83-0.45,5.76-0.56
						c1.93-0.11,3.86-0.13,5.78-0.07c0.9,0.03,1.8,0.07,2.7,0.14c0.48,0.03,0.96,0.08,1.44,0.12c0.61,0.05-0.47-0.05,0.14,0.01
						c0.3,0.03,0.59,0.07,0.89,0.11c3.77,0.47,7.5,1.29,11.1,2.48c0.5,0.17,1,0.34,1.5,0.52c0.17,0.06,0.33,0.12,0.5,0.18
						c0.04,0.01,1.09,0.42,0.41,0.15c0.97,0.39,1.93,0.82,2.88,1.28c1.88,0.91,3.71,1.93,5.45,3.08c0.39,0.25,0.77,0.52,1.15,0.78
						c0.19,0.13,0.38,0.27,0.57,0.4c-0.6-0.44,0.05,0.04,0.16,0.13c0.83,0.64,1.63,1.31,2.41,2.01c0.78,0.7,1.54,1.43,2.27,2.19
						c0.37,0.38,0.72,0.77,1.08,1.17c0.16,0.18,0.31,0.35,0.47,0.53c-0.47-0.55,0.06,0.08,0.22,0.29c1.23,1.52,3.31,2.61,5.09,1.21
						c1.59-1.25,1.79-4.1,0.53-5.66c-5.18-6.44-11.82-11.47-19.48-14.61c-7.73-3.17-15.96-4.69-24.32-4.71
						c-18.27-0.06-35.29,7.56-50.27,17.49c-9.05,6-17.47,12.88-25.8,19.82c1.85,0.73,3.69,1.45,5.54,2.18
						c-3.73-8.61-11.42-14.1-20.27-16.64c-8.77-2.51-17.97-2.08-26.79-0.11c-17.8,3.97-33.81,15.16-44.47,29.84
						c-6.14,8.45-10.38,18.08-12.52,28.29c-0.41,1.95,1.2,4.29,3.08,4.75C201.41,312.79,202.76,311.15,203.15,309.26L203.15,309.26z"
						/>
				</g>
			</g>
			<g>
				<g>
					<path d="M380.64,225.55c-0.72-0.51-1.44-1.02-2.16-1.54c-0.21-0.15-0.41-0.3-0.62-0.45c0.07,0.05,0.34,0.25,0,0
						c-0.41-0.3-0.82-0.61-1.23-0.92c-1.48-1.12-2.93-2.28-4.32-3.5c-1.33-1.16-2.63-2.37-3.84-3.65c-0.34-0.36-0.68-0.73-1.01-1.11
						c-0.49-0.55,0.17,0.23-0.29-0.35c-0.57-0.72-1.12-1.46-1.63-2.22c-0.48-0.71-0.88-1.45-1.32-2.18c-0.33-0.55,0.26,0.58,0,0
						c-0.08-0.17-0.16-0.33-0.23-0.49c-0.2-0.44-0.39-0.89-0.56-1.34c-0.15-0.4-0.29-0.8-0.42-1.21c-0.08-0.24-0.38-1.32-0.18-0.54
						c-0.27-1.08-0.43-2.2-0.52-3.31c-0.31-3.77,0.57-8.53,1.48-12.25c1.22-4.99,2.99-9.75,4.89-14.51c0.77-1.92-0.23-4.42-2.01-5.41
						c-1.91-1.06-3.73-0.1-4.59,1.71c-2.07,4.31-3.55,8.95-4.73,13.58c-1.32,5.18-2.33,10.4-2.17,15.76
						c0.28,8.88,5.33,16.48,11.73,22.28c3.48,3.15,7.39,5.84,11.27,8.47c1.62,1.1,3.78,0.06,4.41-1.64
						C383.31,228.71,382.28,226.71,380.64,225.55L380.64,225.55z"/>
				</g>
			</g>
			<g>
				<g>
					<path d="M293.58,266.49c-0.01,2.18-0.18,4.35-0.53,6.5c-0.08,0.51-0.18,1.02-0.28,1.52c-0.05,0.22-0.09,0.45-0.14,0.67
						c0.15-0.68-0.02,0.05-0.06,0.22c-0.26,1.03-0.57,2.06-0.92,3.07c-0.33,0.95-0.69,1.89-1.09,2.81c-0.18,0.41-0.36,0.81-0.55,1.22
						c-0.12,0.25-0.24,0.5-0.36,0.75c-0.05,0.1-0.49,0.96-0.31,0.62c0.2-0.38-0.13,0.23-0.17,0.32c-0.13,0.24-0.27,0.49-0.41,0.73
						c-0.22,0.39-0.45,0.77-0.68,1.15c-0.58,0.95-1.2,1.89-1.85,2.79c-1.19,1.65-2.48,3.22-3.85,4.72c-0.74,0.81,0.27-0.27-0.18,0.2
						c-0.16,0.16-0.32,0.33-0.48,0.49c-0.36,0.37-0.73,0.73-1.1,1.09c-0.79,0.76-1.6,1.5-2.43,2.21c-3.26,2.81-6.81,5.27-10.53,7.43
						c0.08-0.04-0.95,0.54-0.52,0.3c0.24-0.13-0.57,0.31-0.69,0.38c-0.53,0.29-1.06,0.57-1.59,0.84c-1.13,0.58-2.26,1.13-3.41,1.66
						c-2.31,1.06-4.67,1.98-7.04,2.89c-4.31,1.66-1.48,9.26,2.88,7.75c8.78-3.04,17.34-7.76,24.48-13.71
						c6.96-5.8,12.88-13.16,15.98-21.74c1.89-5.22,2.63-10.66,2.57-16.19c-0.02-1.72-1.72-3.5-3.39-3.63
						C295.25,263.43,293.59,264.72,293.58,266.49L293.58,266.49z"/>
				</g>
			</g>
			<g>
				<g>
					<path d="M287.43,299.65c8.59,1.14,17.06,3.01,25.5,4.98c9.3,2.17,18.53,4.59,27.77,6.99c17.3,4.49,34.76,9.39,52.58,11.24
						c8.37,0.87,16.78,0.47,25.12-0.52c9.94-1.17,19.89-3.13,29.45-6.14c7.58-2.39,14.93-5.51,21.09-10.62
						c6.61-5.49,12.1-12.31,16.68-19.54c4.08-6.44,7.55-13.3,10.47-20.34c1.64-3.96,3.26-8.03,4.25-12.2
						c0.13-0.55,0.34-1.22,0.38-1.82c0.13-2.01-1.01-4.24-3.08-4.75c-1.94-0.48-3.77,1.04-3.9,3c0,0.04,0,0.11-0.02,0.15
						c0.23-0.49,0.42-1.75-0.04,0.17c0.4-1.69,0.15-0.64,0.04-0.24c-0.17,0.63-0.37,1.25-0.56,1.88c-0.65,2.12-1.39,4.22-2.18,6.3
						c-1.09,2.88-2.29,5.72-3.57,8.52c-0.74,1.62-1.52,3.22-2.32,4.81c0,0-0.45,0.88-0.19,0.38c0.22-0.42-0.08,0.15-0.13,0.25
						c-0.21,0.41-0.43,0.81-0.65,1.22c-0.49,0.92-1,1.83-1.51,2.73c-1.99,3.49-4.16,6.89-6.54,10.14c-1.22,1.67-2.49,3.29-3.83,4.87
						c-0.62,0.73-1.24,1.44-1.89,2.14c0.04-0.04-0.71,0.76-0.37,0.4c0.34-0.36-0.42,0.43-0.38,0.39c-0.39,0.4-0.78,0.8-1.18,1.19
						c-2.74,2.7-5.71,5.26-9,7.27c-0.16,0.1-1.15,0.67-0.74,0.44c0.4-0.23-0.63,0.34-0.8,0.43c-0.86,0.45-1.74,0.88-2.62,1.29
						c-1.74,0.8-3.52,1.52-5.32,2.19c-8.84,3.28-17.79,5.3-26.8,6.67c-8.77,1.34-17.79,2.22-26.66,1.68
						c-0.78-0.05-1.57-0.11-2.35-0.17c-0.43-0.04-0.85-0.08-1.28-0.12c-0.66-0.06-0.07-0.01,0.05,0.01c-0.29-0.03-0.58-0.06-0.87-0.1
						c-1.92-0.22-3.84-0.48-5.75-0.78c-4.06-0.63-8.1-1.4-12.12-2.24c-8.94-1.87-17.81-4.1-26.66-6.36
						c-17.76-4.54-35.5-9.56-53.64-12.38c-1.88-0.29-3.76-0.55-5.65-0.78c-1.91-0.23-3.48,0.84-3.7,2.84
						C284.32,296.86,285.49,299.4,287.43,299.65L287.43,299.65z"/>
				</g>
			</g>
			<g>
				<g>
					<path d="M356.64,275.93c-5.83,2.93-10.64,7.49-13.78,13.23c-1.61,2.94-2.82,5.99-3.57,9.26c-0.72,3.16-1.36,6.96-0.64,10.16
						c0.38,1.71,1.44,3.46,3.37,3.61c1.72,0.14,3.17-1.16,3.3-2.91c0.06-0.94,0.01-1.87-0.01-2.81c0.01,0.67,0.01-0.29,0.02-0.45
						c0.01-0.3,0.02-0.61,0.04-0.91c0.09-1.4,0.28-2.78,0.56-4.15c0.23-1.14-0.19,0.63,0.12-0.49c0.1-0.35,0.19-0.71,0.29-1.06
						c0.19-0.64,0.4-1.28,0.63-1.91c0.23-0.63,0.48-1.25,0.75-1.86c0.15-0.33,0.31-0.66,0.46-1c0.49-1.05-0.31,0.52,0.25-0.5
						c0.65-1.18,1.35-2.32,2.14-3.4c0.43-0.59,0.88-1.17,1.34-1.73c0.23-0.28,0.47-0.55,0.72-0.83c0.4-0.46-0.07,0.04,0.4-0.43
						c0.95-0.94,1.94-1.85,2.98-2.69c0.57-0.46,1.16-0.89,1.76-1.3c0.3-0.21,0.61-0.4,0.92-0.6c0.07-0.04,0.86-0.51,0.52-0.32
						c1.67-0.94,2.34-2.71,1.65-4.55C360.31,276.82,358.35,275.07,356.64,275.93L356.64,275.93z"/>
				</g>
			</g>
			<g>
				<g>
					<path d="M322.41,89.77c-10.25,1.75-18.8,9.22-25.58,16.67c-7.56,8.3-13.06,17.93-16.11,28.76c-0.99,3.51-1.78,7.08-2.42,10.67
						c-0.62,3.49-1.22,7.04-1.33,10.58c-0.06,1.93,0.92,4.05,2.95,4.55c2.03,0.5,3.39-1.05,3.73-2.87c1.05-5.64,1.6-11.63,2.94-16.95
						c1.4-5.58,3.36-11.31,6.07-16.25c2.19-4,4.9-7.73,7.83-11.22c3.14-3.73,6.54-7.13,10.55-10.31c1.04-0.83,2.11-1.62,3.22-2.36
						c0.53-0.36,1.08-0.71,1.62-1.04c0.25-0.15,0.49-0.3,0.74-0.44c0.94-0.55-0.52,0.25,0.45-0.24c1.07-0.54,2.14-1.07,3.26-1.49
						c0.58-0.22,1.17-0.42,1.76-0.59c0.19-0.06,0.39-0.11,0.58-0.16c0.11-0.03,1.29-0.28,0.63-0.15c1.83-0.34,2.91-1.81,2.68-3.7
						C325.79,91.65,324.26,89.45,322.41,89.77L322.41,89.77z"/>
				</g>
			</g>
			<g>
				<g>
					<path d="M229.64,120.95c-8.38,8.22-14.74,18.47-18.62,29.54c-4.47,12.74-5.49,26.71-4.77,40.11c0.4,7.56,1.35,15.37,3.56,22.63
						c0.51,1.69,2.41,3.08,4.18,2.68c1.72-0.38,2.9-2.26,2.52-4.03c-1.33-6.19-2.57-12.3-3.1-18.63c-0.53-6.41-0.53-12.32,0.01-18.81
						c0.51-6.15,1.41-12.15,3.17-17.91c1.7-5.57,4.03-10.83,6.86-15.69c1.56-2.67,3.27-5.26,5.14-7.72c0.87-1.15,1.78-2.28,2.73-3.37
						c0.45-0.53,0.92-1.04,1.38-1.55c0.04-0.04,0.43-0.46,0.11-0.12c0.31-0.32,0.62-0.64,0.93-0.96c1.37-1.38,1.58-3.43,0.48-5.08
						C233.32,120.7,231.03,119.58,229.64,120.95L229.64,120.95z"/>
				</g>
			</g>
			<g>
				<g>
					<path d="M365.34,148c3.9-6.7,8.92-11.95,14.87-16.71c6.32-5.06,12.66-8.9,20.25-11.63c1.81-0.65,3.66-1.21,5.53-1.66
						c0.46-0.11,0.92-0.21,1.38-0.31c-0.57,0.12,0.72-0.13,0.82-0.15c0.9-0.15,1.81-0.28,2.72-0.37c1.79-0.18,3.6-0.25,5.4-0.16
						c1.12,0.05,1.28,0.07,2.23,0.21c1.03,0.15,2.06,0.34,3.07,0.57c4.02,0.92,6.92,2.1,10.46,3.87c3.69,1.85,7.22,4,10.69,6.23
						c7.86,5.06,15.51,10.99,24.26,14.45c1.69,0.67,3.36-0.95,3.69-2.46c0.39-1.76-0.38-3.88-2.05-4.75
						c-3.74-1.96-7.43-3.93-11.01-6.18c-3.61-2.27-7.13-4.66-10.7-6.99c-7.1-4.63-14.52-9.11-22.75-11.38
						c-16.16-4.46-33.3,2.58-46.06,12.42c-7.13,5.5-13.62,12.26-17.83,20.29c-0.86,1.64-0.74,3.62,0.68,4.95
						C362.17,149.33,364.41,149.58,365.34,148L365.34,148z"/>
				</g>
			</g>
			<g>
				<g>
					<path d="M448.49,189.99c8.83-6.47,19.61-10.11,30.54-10.27c5.39-0.08,10.41,0.61,15.61,2.42c1.37,0.47,1.83,0.66,3.11,1.24
						c1.19,0.54,2.36,1.12,3.51,1.74c1.15,0.63,2.28,1.3,3.38,2.01c0.55,0.36,1.1,0.72,1.64,1.1c0.27,0.19,0.54,0.38,0.81,0.57
						c0.21,0.15,0.21,0.15,0.01,0c0.21,0.16,0.42,0.32,0.63,0.48c2.41,1.85,4.68,3.88,6.79,6.05c0.46,0.47,0.91,0.95,1.35,1.44
						c0.27,0.29,0.53,0.59,0.79,0.88c0.01,0.01,0.81,0.95,0.36,0.41c1.01,1.2,1.93,2.47,2.91,3.68c1.19,1.46,3.18,2.52,4.9,1.16
						c1.66-1.3,1.55-3.82,0.51-5.45c-1.65-2.58-3.76-4.94-5.86-7.18c-1.94-2.07-4.02-4.01-6.22-5.8c-4.75-3.85-9.94-7-15.63-9.25
						c-11.13-4.41-23.69-4.29-35.06-0.84c-6.59,1.99-12.75,5.26-18.13,9.54C441.35,186.4,445.02,192.53,448.49,189.99L448.49,189.99z
						"/>
				</g>
			</g>
			<g>
				<g>
					<path d="M423.75,176.85c0.93,0.21,1.84,0.46,2.75,0.75c0.45,0.15,0.9,0.31,1.34,0.48c-0.52-0.2,0.67,0.3,0.78,0.35
						c1.61,0.74,3.16,1.62,4.62,2.62c0.2,0.13,0.39,0.27,0.58,0.41c-0.26-0.19-0.28-0.21-0.07-0.05c0.33,0.25,0.65,0.51,0.97,0.77
						c0.73,0.6,1.44,1.23,2.13,1.88c0.6,0.58,1.17,1.17,1.73,1.79c0.16,0.18,0.31,0.36,0.47,0.54c-0.28-0.33-0.27-0.32,0.02,0.03
						c0.29,0.38,0.59,0.75,0.87,1.13c1.06,1.43,2,2.95,2.82,4.53c-0.46-0.89,0.21,0.47,0.28,0.63c0.19,0.43,0.38,0.87,0.56,1.31
						c0.31,0.77,0.59,1.55,0.83,2.34c0.14,0.45,0.27,0.91,0.39,1.36c-0.27-0.98,0.1,0.48,0.14,0.66c0.16,0.81,0.29,1.62,0.39,2.44
						c0.11,0.94,0.18,1.88,0.19,2.82c-0.01-0.89-0.03,0.58-0.03,0.73c-0.01,0.7-0.04,1.41,0.07,2.1c0.24,1.61,1.35,3.24,3.01,3.65
						c1.51,0.37,3.12-0.52,3.61-2c0.61-1.86,0.48-3.92,0.36-5.85c-0.09-1.53-0.31-3.05-0.63-4.55c-0.77-3.53-1.99-6.8-3.67-10
						c-3.07-5.87-7.84-10.92-13.51-14.33c-3.13-1.88-6.62-3.25-10.2-3.97C419.89,168.5,419.67,175.92,423.75,176.85L423.75,176.85z"
						/>
				</g>
			</g>
			<g>
				<g>
					<path d="M191.9,226.84c1.44-1.27,2.96-2.44,4.56-3.51c1.72-1.14,2.68-1.69,4.53-2.58c1.61-0.77,3.28-1.45,4.97-2.03
						c0.97-0.33,1.95-0.63,2.94-0.89c0.37-0.1,0.74-0.19,1.12-0.28c0.14-0.03,1.38-0.31,0.96-0.23c7.53-1.57,14.66-1.15,21.8,1.22
						c1.94,0.64,3.84-1.19,3.97-3.05c0.15-2.18-1.05-4.15-3.14-4.84c-15.64-5.13-33.79-1.33-46.05,9.65
						c-1.49,1.34-1.68,3.76-0.51,5.39C188.09,227.13,190.31,228.23,191.9,226.84L191.9,226.84z"/>
				</g>
			</g>
			<g>
				<g>
					<path d="M264.47,165.8c7.36-0.99,14.34-0.56,21.43,1.31c1.8,0.47,3.58,1.03,5.33,1.66c1.51,0.55,2.78,1.09,4.44,1.89
						c3.38,1.63,6.43,3.66,9.52,5.76c1.53,1.04,3.62,0.24,4.4-1.3c0.84-1.65,0.48-4.05-1-5.27c-6.16-5.08-13.95-8.61-21.66-10.57
						c-7.62-1.94-15.66-2.42-23.45-1.28c-1.96,0.29-3.25,2.05-2.93,4.05C260.84,163.79,262.39,166.08,264.47,165.8L264.47,165.8z"/>
				</g>
			</g>
		</g>
	</g>
</svg>
